# AST/ASF file generated using VICON BodyLanguage
# -----------------------------------------------
:version 1.10
:name VICON
:units
  mass 1.0
  length 0.45
  angle deg
:documentation
   .ast/.asf automatically generated from VICON data using
   VICON BodyBuilder and BodyLanguage model FoxedUp or BRILLIANT.MOD
:root
   order TX TY TZ RX RY RZ
   axis XYZ
   position 0 0 0  
   orientation 0 0 0 
:bonedata
  begin
     id 1 
     name lhipjoint
     direction 0.57768 -0.667037 0.470475 
     length 2.36008 
     axis 0 0 0  XYZ
  end
  begin
     id 2 
     name lfemur
     direction 0.34202 -0.939693 0  
     length 6.97235  
     axis 0 0 20  XYZ
    dof rx ry rz
    limits (-160.0 20.0)
           (-70.0 70.0)
           (-60.0 70.0)
  end
  begin
     id 3 
     name ltibia
     direction 0.34202 -0.939693 0   
     length 6.93428   
     axis 0 0 20   XYZ
    dof rx
    limits (-10.0 170.0)
  end
  begin
     id 4 
     name lfoot
     direction 0.133018 -0.365463 0.921272   
     length 2.18603   
     axis -90 7.62852e-016 20   XYZ
    dof rx rz
    limits (-45.0 90.0)
           (-70.0 20.0)
  end
  begin
     id 5 
     name ltoes
     direction 1.53519e-011 -4.22055e-011 1   
     length 1.07924   
     axis -90 7.62852e-016 20   XYZ
    dof rx
    limits (-90.0 20.0)
  end
  begin
     id 6 
     name rhipjoint
     direction -0.577712 -0.667019 0.470462   
     length 2.36015  
     axis 0 0 0  XYZ 
  end
  begin
     id 7 
     name rfemur
     direction -0.34202 -0.939693 0   
     length 6.71195   
     axis 0 0 -20   XYZ
    dof rx ry rz
    limits (-160.0 20.0)
           (-70.0 70.0)
           (-70.0 60.0)
  end
  begin
     id 8 
     name rtibia
     direction -0.34202 -0.939693 0   
     length 7.04592   
     axis 0 0 -20   XYZ
    dof rx
    limits (-10.0 170.0)
 end
 begin
     id 9 
     name rfoot
     direction -0.113796 -0.312651 0.943027   
     length 2.03846  
     axis -90 -7.62852e-016 -20   XYZ
    dof rx rz
    limits (-45.0 90.0)
           (-20.0 70.0)
  end
  begin
     id 10 
     name rtoes
     direction -1.53586e-011 -4.218e-011 1   
     length 1.01562   
     axis -90 -7.62852e-016 -20   XYZ
    dof rx
    limits (-90.0 20.0)
  end
  begin
     id 11 
     name lowerback
     direction -0.0417299 0.991937 -0.119667   
     length 2.05257   
     axis 0 0 0   XYZ
    dof rx ry rz
    limits (-20.0 45.0)
           (-30.0 30.0)
           (-30.0 30.0)
  end
  begin
     id 12 
     name upperback
     direction -0.00017666 0.999999 0.00105178   
     length 2.05693   
     axis 0 0 0   XYZ
    dof rx ry rz
    limits (-20.0 45.0)
           (-30.0 30.0)
           (-30.0 30.0)
  end
  begin
     id 13 
     name thorax
     direction 0.0185169 0.998203 0.0569866   
     length 2.0932   
     axis 0 0 0   XYZ
    dof rx ry rz
    limits (-20.0 45.0)
           (-30.0 30.0)
           (-30.0 30.0)
  end
  begin
     id 14 
     name lowerneck
     direction -0.0212406 0.982645 0.184277   
     length 1.72509   
     axis 0 0 0   XYZ
    dof rx ry rz
    limits (-20.0 45.0)
           (-30.0 30.0)
           (-30.0 30.0)
  end
  begin
     id 15 
     name upperneck
     direction 0.00528579 0.965323 -0.261004   
     length 1.76294   
     axis 0 0 0   XYZ
    dof rx ry rz
    limits (-20.0 45.0)
           (-30.0 30.0)
           (-30.0 30.0)
  end
  begin
     id 16
     name head
     direction 0.00695421 0.994078 -0.108445  
     length 1.78678  
     axis 0 0 0   XYZ
    dof rx ry rz
    limits (-20.0 45.0)
           (-30.0 30.0)
           (-30.0 30.0)
  end
  begin
     id 17 
     name lclavicle
     direction 0.97277 0.211305 -0.095232  
     length 3.84823  
     axis 0 0 0   XYZ
    dof ry rz
    limits (-20.0 10.0)
           (0.0 20.0)
  end
  begin
     id 18 
     name lhumerus
     direction 1 -4.48957e-011 -1.98313e-027   
     length 4.97185   
     axis 180 -30 -90   XYZ
    dof rx ry rz
    limits (-60.0 90.0)
           (-90.0 90.0)
           (-90.0 90.0)
  end
  begin
     id 19
     name lradius
     direction 1 -4.4898e-011 7.31063e-027   
     length 3.35811   
     axis 180 -30 -90   XYZ
    dof rx
    limits (-10.0 170.0)
  end
  begin
     id 20
     name lwrist
     direction 1 -4.48938e-011 9.95048e-027   
     length 1.67905   
     axis -8.75986e-015 90 90   XYZ
    dof ry
    limits (-180.0 0.0)
 end
  begin
     id 21 
     name lhand
     direction 1 -4.4901e-011 1.9901e-026   
     length 0.622776   
     axis -1.26985e-014 90 90   XYZ
    dof rx rz
    limits (-90.0 90.0)
           (-45.0 45.0)
  end
  begin
     id 22 
     name lfingers
     direction 1 -4.48961e-011 3.98019e-026   
     length 0.502098   
     axis -2.5397e-014 90 90   XYZ
    dof rx
    limits (0.0 90.0)
  end
  begin
     id 23
     name lthumb
     direction 0.707107 -6.34933e-011 0.707107   
     length 0.720915   
     axis -90 45 2.85299e-015   XYZ
    dof rx rz
    limits (-45.0 45.0)
           (-45.0 45.0)
  end
  begin
     id 24 
     name rclavicle
     direction -0.990867 0.133739 -0.0172226   
     length 3.78845  
     axis 0 0 0   XYZ 
    dof ry rz
    limits (-10.0 20.0)
           (-20.0 0.0)
  end
  begin
     id 25 
     name rhumerus
     direction -1 -4.48972e-011 -1.99267e-027  
     length 4.96493   
     axis 180 30 90   XYZ
    dof rx ry rz
    limits (-90.0 60.0)
           (-90.0 90.0)
           (-90.0 90.0)
  end
  begin
     id 26 
     name rradius
     direction -1 -4.48969e-011 8.96093e-027   
     length 3.34929   
     axis 180 30 90   XYZ
    dof rx
    limits (-10.0 170.0)
  end
  begin
     id 27 
     name rwrist
     direction -1 -4.48953e-011 9.95048e-027   
     length 1.67464   
     axis -8.75986e-015 -90 -90   XYZ
    dof ry
    limits (-180.0 0.0)
  end
  begin
     id 28
     name rhand
     direction -1 -4.49001e-011 1.9901e-026   
     length 0.638041   
     axis -1.26985e-014 -90 -90   XYZ
    dof rx rz
    limits (-90.0 90.0)
           (-45.0 45.0)
  end
  begin
     id 29
     name rfingers
     direction -1 -4.48967e-011 3.98019e-026   
     length 0.514405   
     axis -2.5397e-014 -90 -90   XYZ
    dof rx
    limits (0.0 90.0)
  end
  begin
     id 30
     name rthumb
     direction -0.707107 -6.34904e-011 0.707107   
     length 0.738586   
     axis -90 -45 -2.85299e-015   XYZ
    dof rx rz
    limits (-45.0 45.0)
           (-45.0 45.0)
  end
:hierarchy
  begin
    root lhipjoint rhipjoint lowerback
    lhipjoint lfemur
    lfemur ltibia
    ltibia lfoot
    lfoot ltoes
    rhipjoint rfemur
    rfemur rtibia
    rtibia rfoot
    rfoot rtoes
    lowerback upperback
    upperback thorax
    thorax lowerneck lclavicle rclavicle
    lowerneck upperneck
    upperneck head
    lclavicle lhumerus
    lhumerus lradius
    lradius lwrist
    lwrist lhand lthumb
    lhand lfingers
    rclavicle rhumerus
    rhumerus rradius
    rradius rwrist
    rwrist rhand rthumb
    rhand rfingers
  end

#!OML:ASF E:\Mandelcareful walks\Project 1\Capture day 1\Session 1\Subject1.ASF
:FULLY-SPECIFIED
:DEGREES
1
root -2.62183 16.8487 -0.60709 144.917 84.9273 140.314
lowerback -5.00093 -0.65801 -6.8297
upperback 0.582032 -0.465292 0.421945
thorax 3.47599 -0.364744 4.23942
lowerneck -24.4413 1.70985 -2.29446
upperneck 26.319 3.68584 -0.261829
head 12.82 1.43319 0.962097
rclavicle 7.62836e-015 -2.38542e-015
rhumerus -27.31 -8.51292 -81.5791
rradius 23.4574
rwrist -5.35016
rhand -14.0879 -31.699
rfingers 7.12502
rthumb 12.0443 -61.3324
lclavicle 7.62836e-015 -2.38542e-015
lhumerus -26.3241 8.45852 88.9679
lradius 21.725
lwrist 2.99184
lhand -23.8594 -8.7393
lfingers 7.12502
lthumb 2.61313 21.2244
rfemur -3.76049 2.68083 10.7502
rtibia 15.1811
rfoot -19.8311 -27.244
rtoes 5.8276
lfemur -6.83292 -8.03124 -18.3646
ltibia 21.7273
lfoot -23.6911 21.409
ltoes 6.94695
2
root -2.61692 16.85 -0.614289 141.703 84.9427 137.083
lowerback -5.15126 -0.603271 -6.95967
upperback 0.647328 -0.367342 0.361602
thorax 3.61774 -0.324332 4.25714
lowerneck -24.5051 1.68694 -2.3999
upperneck 26.3229 3.67647 -0.200501
head 12.8307 1.42588 1.00245
rclavicle -8.10048e-015 -1.98785e-015
rhumerus -27.3529 -9.07642 -81.3822
rradius 23.6716
rwrist -4.84758
rhand -13.7508 -32.3949
rfingers 7.12502
rthumb 12.3693 -62.009
lclavicle -8.10048e-015 -1.98785e-015
lhumerus -26.1765 8.9238 88.8142
lradius 21.5084
lwrist 1.97964
lhand -23.4448 -8.59838
lfingers 7.12502
lthumb 3.01357 21.3601
rfemur -4.09379 2.15892 10.4358
rtibia 15.7332
rfoot -19.7622 -26.4792
rtoes 5.62436
lfemur -6.59869 -8.16435 -18.6722
ltibia 21.3423
lfoot -23.5357 21.8577
ltoes 6.5789
3
root -2.61134 16.8503 -0.6179 140.117 84.9393 135.494
lowerback -5.25732 -0.600273 -7.02432
upperback 0.70847 -0.346503 0.318335
thorax 3.73932 -0.320548 4.24975
lowerneck -24.6131 1.69322 -2.41182
upperneck 26.3506 3.68776 -0.183647
head 12.8626 1.42993 1.01477
rclavicle -6.39838e-015 -1.23246e-014
rhumerus -27.3652 -9.67004 -81.2436
rradius 23.8691
rwrist -4.2852
rhand -13.5033 -32.5138
rfingers 7.12502
rthumb 12.608 -62.1133
lclavicle -6.39838e-015 -1.23246e-014
lhumerus -26.0824 9.35981 88.5992
lradius 21.3748
lwrist 1.07552
lhand -22.7929 -8.61148
lfingers 7.12502
lthumb 3.64308 21.3371
rfemur -4.14307 1.9973 10.2767
rtibia 15.8036
rfoot -19.5876 -26.3307
rtoes 5.82127
lfemur -6.51118 -8.17694 -18.8273
ltibia 21.2918
lfoot -23.5795 21.9737
ltoes 6.24331
4
root -2.60952 16.8482 -0.622199 139.638 85.0193 135.004
lowerback -5.30573 -0.577956 -6.92538
upperback 0.754075 -0.316986 0.295537
thorax 3.8095 -0.307212 4.17248
lowerneck -24.7085 1.68837 -2.40747
upperneck 26.3262 3.67636 -0.178602
head 12.8718 1.42452 1.0147
rclavicle 1.13059e-014 4.77083e-015
rhumerus -27.3956 -10.3073 -81.0952
rradius 24.102
rwrist -3.73637
rhand -13.4033 -32.4677
rfingers 7.12502
rthumb 12.7044 -62.0612
lclavicle 1.13059e-014 4.77083e-015
lhumerus -26.0017 9.6576 88.4159
lradius 21.2388
lwrist 0.283323
lhand -22.2007 -8.91172
lfingers 7.12502
lthumb 4.21495 21.0263
rfemur -4.21607 1.81611 10.2681
rtibia 15.9025
rfoot -19.4365 -26.2065
rtoes 5.13134
lfemur -6.43793 -8.12462 -18.8389
ltibia 21.2058
lfoot -23.6231 22.0229
ltoes 6.24426
5
root -2.61276 16.8494 -0.628872 139.287 85.2794 134.62
lowerback -5.30403 -0.505271 -6.67544
upperback 0.751952 -0.238422 0.317752
thorax 3.79447 -0.262787 4.06159
lowerneck -24.7355 1.67312 -2.40693
upperneck 26.3066 3.65827 -0.194897
head 12.87 1.41391 1.00507
rclavicle 3.13086e-015 9.14409e-015
rhumerus -27.6404 -10.8994 -80.8824
rradius 24.4987
rwrist -3.22616
rhand -13.2291 -32.5678
rfingers 7.12502
rthumb 12.8723 -62.1509
lclavicle 3.13086e-015 9.14409e-015
lhumerus -25.9648 9.76814 88.3578
lradius 21.1413
lwrist -0.10987
lhand -22.0816 -9.038
lfingers 7.12502
lthumb 4.32994 20.8977
rfemur -4.34061 1.6539 10.3746
rtibia 15.8678
rfoot -19.2062 -25.9477
rtoes 4.57343
lfemur -6.45187 -8.07017 -18.7251
ltibia 21.2058
lfoot -23.7887 22.1598
ltoes 6.9293
6
root -2.61782 16.8517 -0.635568 137.47 85.5266 132.796
lowerback -5.22302 -0.423227 -6.52805
upperback 0.725779 -0.14622 0.321755
thorax 3.70922 -0.210535 3.99054
lowerneck -24.7404 1.66426 -2.3576
upperneck 26.3422 3.65257 -0.270245
head 12.8886 1.40539 0.967454
rclavicle -1.63997e-015 -5.1684e-015
rhumerus -28.3187 -11.6828 -80.5582
rradius 25.4175
rwrist -2.47077
rhand -12.8044 -32.7748
rfingers 7.12502
rthumb 13.2817 -62.3316
lclavicle -1.63997e-015 -5.1684e-015
lhumerus -25.9699 10.3739 88.0881
lradius 20.998
lwrist -1.32088
lhand -21.5529 -9.05854
lfingers 7.12502
lthumb 4.84052 20.8662
rfemur -4.45377 1.71753 10.3688
rtibia 15.7602
rfoot -19.0179 -25.7722
rtoes 4.6932
lfemur -6.44972 -8.21036 -18.7082
ltibia 21.2578
lfoot -24.2422 22.3462
ltoes 8.2969
7
root -2.6212 16.8516 -0.640182 135.508 85.581 130.829
lowerback -5.15376 -0.400768 -6.55115
upperback 0.72275 -0.118461 0.285872
thorax 3.66369 -0.19513 3.96834
lowerneck -24.7771 1.66265 -2.26754
upperneck 26.3807 3.65154 -0.377378
head 12.9164 1.39798 0.912007
rclavicle -3.29237e-015 -4.17448e-015
rhumerus -28.3339 -11.6545 -80.5902
rradius 25.4738
rwrist -2.5072
rhand -12.7294 -32.7707
rfingers 7.12502
rthumb 13.354 -62.3228
lclavicle -3.29237e-015 -4.17448e-015
lhumerus -25.9333 10.5547 88.0113
lradius 20.9307
lwrist -1.45964
lhand -21.6256 -8.94973
lfingers 7.12502
lthumb 4.77027 20.9766
rfemur -4.4911 1.81391 10.2539
rtibia 15.6588
rfoot -18.8581 -25.7679
rtoes 4.34762
lfemur -6.45699 -8.39168 -18.8116
ltibia 21.3051
lfoot -24.5438 22.4809
ltoes 8.81235
8
root -2.62304 16.8525 -0.643792 135.349 85.5865 130.625
lowerback -5.16662 -0.438413 -6.54297
upperback 0.733843 -0.16749 0.277928
thorax 3.68823 -0.220304 3.95135
lowerneck -24.8425 1.66974 -2.22359
upperneck 26.4051 3.66184 -0.42635
head 12.9415 1.39864 0.888772
rclavicle 4.53478e-015 8.34896e-015
rhumerus -28.2346 -11.625 -80.6335
rradius 25.3923
rwrist -2.52561
rhand -12.7583 -32.5987
rfingers 7.12502
rthumb 13.3262 -62.1526
lclavicle 4.53478e-015 8.34896e-015
lhumerus -25.8626 10.7565 87.9237
lradius 20.8536
lwrist -1.62918
lhand -21.6865 -8.78126
lfingers 7.12502
lthumb 4.71147 21.1463
rfemur -4.54546 1.75158 10.2343
rtibia 15.6187
rfoot -18.7247 -25.7815
rtoes 4.06045
lfemur -6.5262 -8.39454 -18.8289
ltibia 21.3133
lfoot -24.525 22.5599
ltoes 8.44244
9
root -2.62293 16.8545 -0.645916 135.912 85.6368 131.151
lowerback -5.21219 -0.459637 -6.48095
upperback 0.752488 -0.196855 0.299173
thorax 3.73652 -0.235998 3.93611
lowerneck -24.8654 1.6681 -2.24463
upperneck 26.3603 3.6626 -0.419833
head 12.9272 1.39754 0.894444
rclavicle 5.64051e-015 1.41137e-014
rhumerus -28.1322 -11.6563 -80.6245
rradius 25.2791
rwrist -2.50168
rhand -12.7972 -32.5246
rfingers 7.12502
rthumb 13.2887 -62.081
lclavicle 5.64051e-015 1.41137e-014
lhumerus -25.8267 10.8629 87.8671
lradius 20.8346
lwrist -1.80008
lhand -21.6176 -8.73853
lfingers 7.12502
lthumb 4.77799 21.1876
rfemur -4.60848 1.66209 10.297
rtibia 15.6361
rfoot -18.6326 -25.7216
rtoes 4.32584
lfemur -6.55178 -8.38392 -18.7615
ltibia 21.2931
lfoot -24.568 22.5892
ltoes 8.39796
